<?xml version="1.0" encoding="UTF-8"?><svg xmlns="http://www.w3.org/2000/svg" xmlns:xlink="http://www.w3.org/1999/xlink" fill-opacity="1" color-rendering="auto" color-interpolation="auto" text-rendering="auto" stroke="black" stroke-linecap="square" width="424" stroke-miterlimit="10" shape-rendering="auto" stroke-opacity="1" fill="black" stroke-dasharray="none" font-weight="normal" stroke-width="1" height="492" font-family="'Dialog'" font-style="normal" stroke-linejoin="miter" font-size="12px" stroke-dashoffset="0" image-rendering="auto">
  <!--Generated by ySVG 2.5-->
  <defs id="genericDefs"/>
  <g>
    <defs id="defs1">
      <linearGradient x1="368.3333" gradientUnits="userSpaceOnUse" x2="631" y1="93" y2="93" id="linearGradient1" spreadMethod="reflect">
        <stop stop-opacity="1" stop-color="white" offset="0%"/>
        <stop stop-opacity="1" stop-color="white" offset="100%"/>
      </linearGradient>
      <clipPath clipPathUnits="userSpaceOnUse" id="clipPath1">
        <path d="M0 0 L424 0 L424 492 L0 492 L0 0 Z"/>
      </clipPath>
      <clipPath clipPathUnits="userSpaceOnUse" id="clipPath2">
        <path d="M222 20 L646 20 L646 512 L222 512 L222 20 Z"/>
      </clipPath>
    </defs>
    <g fill="white" text-rendering="geometricPrecision" shape-rendering="geometricPrecision" transform="translate(-222,-20)" stroke="white">
      <rect x="222" width="424" height="492" y="20" clip-path="url(#clipPath2)" stroke="none"/>
    </g>
    <g fill="url(#linearGradient1)" text-rendering="geometricPrecision" shape-rendering="geometricPrecision" transform="matrix(1,0,0,1,-222,-20)" stroke="url(#linearGradient1)">
      <ellipse rx="197" ry="194.5" clip-path="url(#clipPath2)" cx="434" cy="287.5" stroke="none"/>
    </g>
    <g text-rendering="geometricPrecision" stroke-miterlimit="1.45" stroke-dasharray="6,2" shape-rendering="geometricPrecision" transform="matrix(1,0,0,1,-222,-20)" stroke-linecap="butt">
      <ellipse rx="197" fill="none" ry="194.5" clip-path="url(#clipPath2)" cx="434" cy="287.5"/>
      <ellipse stroke-linecap="square" clip-path="url(#clipPath2)" rx="66" stroke-dasharray="none" cx="434" ry="66.5" cy="287.5" stroke="none" stroke-miterlimit="10"/>
    </g>
    <g stroke-linecap="butt" font-size="20px" transform="matrix(1,0,0,1,-222,-20)" fill="white" text-rendering="geometricPrecision" font-family="sans-serif" shape-rendering="geometricPrecision" stroke="white" font-weight="bold" stroke-miterlimit="1.45">
      <text x="373.4678" xml:space="preserve" y="283.2812" clip-path="url(#clipPath2)" stroke="none">Operational</text>
      <text x="419.7715" xml:space="preserve" y="306.8359" clip-path="url(#clipPath2)" stroke="none">DB</text>
    </g>
    <g fill="rgb(255,102,0)" text-rendering="geometricPrecision" shape-rendering="geometricPrecision" transform="matrix(1,0,0,1,-222,-20)" stroke="rgb(255,102,0)">
      <ellipse rx="66" ry="66.5" clip-path="url(#clipPath2)" cx="556" cy="430.5" stroke="none"/>
    </g>
    <g stroke-linecap="butt" font-size="20px" transform="matrix(1,0,0,1,-222,-20)" fill="white" text-rendering="geometricPrecision" font-family="sans-serif" shape-rendering="geometricPrecision" stroke="white" font-weight="bold" stroke-miterlimit="1.45">
      <text x="520.6826" xml:space="preserve" y="438.0586" clip-path="url(#clipPath2)" stroke="none">Modify</text>
    </g>
    <g fill="rgb(153,204,0)" text-rendering="geometricPrecision" shape-rendering="geometricPrecision" transform="matrix(1,0,0,1,-222,-20)" stroke="rgb(153,204,0)">
      <ellipse rx="66" ry="66.5" clip-path="url(#clipPath2)" cx="311" cy="430.5" stroke="none"/>
    </g>
    <g stroke-linecap="butt" font-size="20px" transform="matrix(1,0,0,1,-222,-20)" fill="white" text-rendering="geometricPrecision" font-family="sans-serif" shape-rendering="geometricPrecision" stroke="white" font-weight="bold" stroke-miterlimit="1.45">
      <text x="282.333" xml:space="preserve" y="438.0586" clip-path="url(#clipPath2)" stroke="none">Learn</text>
    </g>
    <g fill="rgb(153,204,255)" text-rendering="geometricPrecision" shape-rendering="geometricPrecision" transform="matrix(1,0,0,1,-222,-20)" stroke="rgb(153,204,255)">
      <ellipse rx="66" ry="66.5" clip-path="url(#clipPath2)" cx="434" cy="101.5" stroke="none"/>
    </g>
    <g stroke-linecap="butt" font-size="20px" transform="matrix(1,0,0,1,-222,-20)" fill="white" text-rendering="geometricPrecision" font-family="sans-serif" shape-rendering="geometricPrecision" stroke="white" font-weight="bold" stroke-miterlimit="1.45">
      <text x="408.7363" xml:space="preserve" y="109.0586" clip-path="url(#clipPath2)" stroke="none">Read</text>
    </g>
  </g>
</svg>
